<svg version="1.1" xmlns="http://www.w3.org/2000/svg" xmlns:xlink="http://www.w3.org/1999/xlink" viewBox="0 0 172 172"><g fill="none" fill-rule="nonzero" stroke="none" stroke-width="1" stroke-linecap="butt" stroke-linejoin="miter" stroke-miterlimit="10" stroke-dasharray="" stroke-dashoffset="0" font-family="none" font-weight="none" font-size="none" text-anchor="none" style="mix-blend-mode: normal"><path d="M0,172v-172h172v172z" fill="none"></path><g fill="#ffffff"><path d="M127.34114,4.70313h-87.34375c-1.48427,0 -2.6875,1.20323 -2.6875,2.6875c0,1.48427 1.20323,2.6875 2.6875,2.6875h87.34375c5.2877,0 9.57422,4.28652 9.57422,9.57422c0,5.2877 -4.28652,9.57422 -9.57422,9.57422h-45.01562c-8.24323,0 -14.80208,6.78997 -14.80208,15.0332v2.77148h-8.2513c-16.3007,0 -29.70964,13.18353 -29.70964,29.48423v61.13491c0,16.3007 13.40895,29.64648 29.70964,29.64648h22.16784c16.3007,0 29.41939,-13.34579 29.41939,-29.64648v-61.13491c0.02044,-7.81472 -3.07045,-15.31619 -8.59022,-20.84813c-5.51977,-5.53194 -13.01443,-8.63934 -20.82917,-8.6361h-8.54155v-2.77148c0,-5.27926 4.14782,-9.6582 9.42708,-9.6582h45.01563c8.25623,0 14.94922,-6.69299 14.94922,-14.94922c0,-8.25623 -6.69299,-14.94922 -14.94922,-14.94922zM59.27214,52.40625h8.2513v17.86482c-4.00911,1.20679 -6.74432,4.91013 -6.71875,9.09685v4.95239h-25.86719v-7.80484c0,-13.33705 10.99759,-24.10923 24.33464,-24.10923zM74.57813,86.91375c0,0.00437 0,0.00873 0,0.0131c0,0.00437 0,0.0084 0,0.01277v7.54583c-0.00814,2.32011 -1.89018,4.1972 -4.2103,4.19922h0.00538c-2.31693,-0.00315 -4.19351,-1.88228 -4.19351,-4.19922v-7.525c0,-0.01075 0,-0.0215 0,-0.03359c0,-0.01209 0,-0.0215 0,-0.03359v-7.525c0,-2.31916 1.88005,-4.19922 4.19922,-4.19922c2.31916,0 4.19922,1.88005 4.19922,4.19922zM81.43998,161.92188h-22.16784c-13.33705,0 -24.33464,-10.93443 -24.33464,-24.27148v-47.95508h25.86719v4.79013c0,5.2877 4.28652,9.57422 9.57422,9.57422c5.2877,0 9.57422,-4.28652 9.57422,-9.57422v-4.79013h25.53125v47.95508c0,13.33705 -10.70734,24.27148 -24.04439,24.27148zM81.43998,52.40625c6.3897,-0.00486 12.51815,2.53573 17.03027,7.06001c4.51212,4.52428 7.03619,10.65955 7.01412,17.04922v7.80484h-25.53125v-4.95239c0.01145,-4.32891 -2.8795,-8.12845 -7.05469,-9.27188v-17.6898z"></path></g></g></svg>